<svg width="25" height="24" viewBox="0 0 25 24" fill="none" xmlns="http://www.w3.org/2000/svg">
<path d="M15.2021 9.98547H13.8716V15.5073H15.2021V9.98547Z" fill="#808080"/>
<path d="M12.4624 9.98547H11.1318V15.5073H12.4624V9.98547Z" fill="#808080"/>
<path d="M19.478 7.16712C19.4754 7.03061 19.4295 6.89846 19.3469 6.78975C19.2642 6.68104 19.1492 6.6014 19.0184 6.56232C18.9596 6.53782 18.8974 6.52252 18.8339 6.51696H15.2868C15.1525 6.07791 14.8808 5.69355 14.5117 5.42047C14.1426 5.14739 13.6956 5 13.2365 5C12.7774 5 12.3304 5.14739 11.9613 5.42047C11.5922 5.69355 11.3205 6.07791 11.1862 6.51696H7.63911C7.58068 6.51814 7.52269 6.52729 7.46674 6.54418H7.45162C7.31318 6.58701 7.19334 6.67547 7.11163 6.79515C7.02992 6.91483 6.99117 7.05866 7.00169 7.20319C7.01222 7.34771 7.0714 7.48441 7.16958 7.59099C7.26776 7.69757 7.39916 7.76774 7.54234 7.79006L8.25298 17.5334C8.26382 17.9127 8.41693 18.2741 8.68191 18.5458C8.94688 18.8175 9.30435 18.9797 9.68332 19H16.7867C17.1662 18.9804 17.5244 18.8186 17.79 18.5468C18.0556 18.2751 18.2092 17.9132 18.22 17.5334L18.9277 7.79914C19.0802 7.77797 19.22 7.70232 19.3212 7.58615C19.4223 7.46999 19.478 7.32116 19.478 7.16712ZM13.2365 6.21456C13.3661 6.21458 13.4943 6.24146 13.6129 6.29351C13.7316 6.34556 13.8382 6.42164 13.926 6.51696H12.547C12.6346 6.42135 12.7411 6.34507 12.8599 6.29299C12.9786 6.24092 13.1069 6.21421 13.2365 6.21456ZM16.7867 17.7904H9.68332C9.60168 17.7904 9.47467 17.6573 9.45955 17.4457L8.75798 7.81123H17.715L17.0135 17.4457C16.9984 17.6573 16.8714 17.7904 16.7867 17.7904Z" fill="#808080"/>
</svg>
